<svg t="1732291160352" class="icon" viewBox="0 0 1024 1024" version="1.1" xmlns="http://www.w3.org/2000/svg"
     p-id="19647" width="48" height="48">
    <path d="M716.8 426.666667h81.442133a34.133333 34.133333 0 1 0 0-68.266667H716.8a34.133333 34.133333 0 1 0 0 68.266667zM716.8 529.066667h81.442133a34.133333 34.133333 0 1 0 0-68.266667H716.8a34.133333 34.133333 0 1 0 0 68.266667zM716.8 631.466667h81.442133a34.133333 34.133333 0 1 0 0-68.266667H716.8a34.133333 34.133333 0 1 0 0 68.266667z"
          fill="#41BCA4" p-id="19648"></path>
    <path d="M750.933333 68.266667h102.4a102.4 102.4 0 0 1 102.4 102.4v648.533333a102.4 102.4 0 0 1-102.4 102.4h-102.4a102.4 102.4 0 0 1-102.4-102.4V170.666667a102.4 102.4 0 0 1 102.4-102.4z m0 68.266666a34.133333 34.133333 0 0 0-34.133333 34.133334v648.533333a34.133333 34.133333 0 0 0 34.133333 34.133333h102.4a34.133333 34.133333 0 0 0 34.133334-34.133333V170.666667a34.133333 34.133333 0 0 0-34.133334-34.133334h-102.4zM78.267733 921.6a34.133333 34.133333 0 0 1-29.149866-51.882667l477.866666-785.066666c17.92-29.457067 63.2832-16.725333 63.2832 17.749333v785.066667a34.133333 34.133333 0 0 1-34.133333 34.133333h-477.866667z m60.757334-68.266667h382.976V224.119467L139.025067 853.333333z"
          fill="#333333" p-id="19649"></path>
</svg>