<svg t="1732291420953" class="icon" viewBox="0 0 1043 1024" version="1.1" xmlns="http://www.w3.org/2000/svg"
     p-id="40433" width="48" height="48">
    <path d="M998.622413 1.280317H42.37951a33.23839 33.23839 0 1 0 0 63.91998h18.536794v648.787799a63.91998 63.91998 0 0 0 63.91998 63.91998h327.909498l-198.791138 199.430338a26.846392 26.846392 0 1 0 38.351988 38.351989L520.500961 788.135273l228.19433 227.55513a26.846392 26.846392 0 1 0 38.351988-38.351989l-198.791139-198.791138h335.579896a63.91998 63.91998 0 0 0 63.91998-63.91998V65.200297h12.144797a33.23839 33.23839 0 1 0 0-63.91998z m-74.786377 713.346979H124.836284V65.200297h797.721353z"
          fill="#231815" p-id="40434"></path>
    <path d="M223.273054 508.16576a30.68159 30.68159 0 0 0 44.743986 0L417.589793 359.232206a24.928792 24.928792 0 0 1 38.991188 0l139.345557 141.902356a31.95999 31.95999 0 0 0 45.383186 0L824.760067 320.880218a31.95999 31.95999 0 1 0-45.383186-45.383186L641.309724 411.00739a32.59919 32.59919 0 0 1-45.383186 0L456.580981 272.940233a32.59919 32.59919 0 0 0-45.383186 0l-191.75994 191.75994a31.95999 31.95999 0 0 0 3.835199 43.465587z"
          fill="#231815" p-id="40435"></path>
</svg>