<svg t="1732291608343" class="icon" viewBox="0 0 1024 1024" version="1.1" xmlns="http://www.w3.org/2000/svg"
     p-id="53296" width="48" height="48">
    <path d="M56.32 674.986667l1.706667 3.413333 0 0c11.946667 34.986667 29.013333 67.413333 48.64 98.133333 12.8 19.626667 27.306667 38.4 42.666666 55.466667 4.266667 5.12 8.533333 11.093333 13.653334 15.36 2.56 1.706667 5.12 4.266667 6.826666 6.826667 3.413333 3.413333 6.826667 5.973333 10.24 9.386666 1.706667 2.56 4.266667 5.12 6.826667 8.533334 4.266667 4.266667 10.24 7.68 15.36 11.093333 2.56 1.706667 4.266667 4.266667 6.826667 5.973333 1.706667 1.706667 1.706667 2.56 1.706666 3.413334 0 0 0 0 0 0 3.413333 0 3.413333 3.413333 5.973334 3.413333l5.973333 3.413333c81.066667 60.586667 180.906667 96.426667 289.28 96.426667 133.12 0 254.293333-54.613333 342.186667-141.653333 87.04-87.893333 141.653333-209.066667 141.653333-342.186667 0-133.12-54.613333-254.293333-141.653333-342.186667-87.893333-87.04-209.066667-141.653333-342.186667-141.653333-133.12 0-254.293333 54.613333-342.186667 141.653333-87.04 87.893333-141.653333 209.066667-141.653333 342.186667 0 57.173333 10.24 111.786667 28.16 162.986667z m714.24-493.226667c8.533333 6.826667 17.066667 13.653333 24.746667 21.333333-66.56 72.533333-151.04 123.733333-238.08 157.013334-57.173333-105.813333-117.76-189.44-162.986667-250.026667 16.213333-5.12 32.426667-9.386667 48.64-11.946667 18.773333-3.413333 37.546667-5.12 57.173333-5.973333 65.706667-0.853333 134.826667 13.653333 194.56 41.813333 27.306667 13.653333 52.906667 29.013333 75.946667 47.786667z m-437.76-49.493333c41.813333 57.173333 104.106667 144.213333 163.84 249.173333-145.92 44.373333-296.96 53.76-396.8 51.2 16.213333-84.48 57.173333-159.573333 115.2-217.6 34.133333-33.28 73.386667-61.44 117.76-82.773333z m-239.786667 360.106666l40.106667 0c108.373333 0 252.586667-11.946667 394.24-57.173333 11.946667 23.893333 26.453333 51.2 39.253333 78.506667-185.173333 56.32-302.08 192.853333-362.666666 283.306666-24.746667-27.306667-46.08-57.173333-63.146667-89.6-20.48-44.373333-35.84-94.72-44.373333-139.093333-2.56-18.773333-4.266667-37.546667-4.266667-56.32 0-6.826667 0-12.8 0.853333-19.626667z m153.6 344.746667c52.053333-87.04 160.426667-219.306667 340.48-269.653333 41.813333 101.546667 77.653333 212.48 93.013334 329.386666-51.2 22.186667-108.373333 34.986667-168.106667 34.986667-100.693333 0-192.853333-35.84-265.386667-94.72z m494.08 27.306667c-17.92-110.933333-51.2-215.893333-90.453333-311.466667 78.506667-11.946667 171.52-11.946667 277.333333 14.506667-8.533333 56.32-34.133333 127.146667-72.533333 186.88-14.506667 19.626667-29.866667 37.546667-46.08 54.613333-21.333333 20.48-43.52 39.253333-68.266667 55.466667z m191.146667-357.546667c-119.466667-26.453333-218.453333-26.453333-305.493333-8.533333-11.946667-29.866667-27.306667-57.173333-39.253334-84.48 90.453333-35.84 177.493333-89.6 249.173334-168.106667 58.88 71.68 93.866667 162.133333 95.573333 261.12z"
          fill="#2c2c2c" p-id="53297"></path>
</svg>